<?xml version="1.0" standalone="no"?>
<!DOCTYPE svg PUBLIC "-//W3C//DTD SVG 20010904//EN"
 "http://www.w3.org/TR/2001/REC-SVG-20010904/DTD/svg10.dtd">
<svg version="1.0" xmlns="http://www.w3.org/2000/svg"
 width="447.000000pt" height="559.000000pt" viewBox="0 0 447.000000 559.000000"
 preserveAspectRatio="xMidYMid meet">

<g transform="translate(0.000000,559.000000) scale(0.100000,-0.100000)"
fill="#000000" stroke="none">
<path d="M1130 3439 c-14 -25 4 -1157 21 -1356 10 -123 25 -182 73 -283 14
-30 26 -64 26 -76 0 -27 49 -101 96 -145 49 -45 93 -72 167 -99 31 -12 57 -23
57 -25 0 -4 -105 -266 -424 -1054 -86 -212 -156 -388 -156 -393 0 -4 35 -8 79
-8 l78 0 66 142 c36 79 86 187 111 240 25 53 46 99 46 101 0 2 34 75 75 161
41 86 75 158 75 160 0 2 20 46 44 97 24 52 60 130 80 174 20 44 40 87 45 95 7
13 44 14 262 12 140 -2 256 -6 258 -8 4 -4 -39 -874 -54 -1092 l-6 -82 29 0
c27 0 30 4 35 37 2 21 5 106 6 190 1 83 3 159 5 170 2 10 7 92 10 183 7 184
12 255 26 350 5 36 11 86 14 112 5 60 12 69 44 66 23 -3 27 1 30 26 l4 29 216
-7 c119 -4 235 -9 257 -12 l41 -6 38 -99 c30 -77 42 -97 52 -88 7 6 16 24 19
41 5 19 10 26 15 18 5 -8 9 -7 14 5 5 15 9 15 23 4 15 -12 16 -12 10 4 -4 10
-3 16 1 13 4 -2 16 2 27 10 19 14 19 15 1 82 -11 37 -20 94 -22 127 -1 33 -7
73 -13 88 -13 34 -14 33 99 41 250 18 452 103 479 202 10 36 -2 89 -26 123
-46 63 -139 85 -427 100 -204 11 -254 26 -342 103 -102 88 -186 228 -285 474
-46 115 -79 190 -179 410 -110 239 -208 405 -272 459 -69 59 -100 66 -310 69
-224 4 -267 13 -432 86 -128 57 -187 65 -206 29z"/>
</g>
</svg>
